<svg width="32" height="32" viewBox="0 0 32 32" fill="none" xmlns="http://www.w3.org/2000/svg">
<g clip-path="url(#clip0_417_2)">
<rect width="32" height="32" fill="white"/>
<path d="M13.668 25.8063H13.93V26.2702C13.9724 26.1555 14.0509 26.0471 14.1658 25.9445C14.2805 25.8423 14.4102 25.791 14.555 25.791C15.0614 25.791 15.3146 26.088 15.3146 26.6816C15.3146 27.3553 14.9876 27.6921 14.3341 27.6921C14.2168 27.6921 14.082 27.6647 13.93 27.6098V28.6128H13.668V25.8058V25.8063ZM14.5511 25.8213C14.3963 25.8213 14.2567 25.8881 14.1319 26.0214C14.0071 26.155 13.9398 26.2754 13.9297 26.3826V27.5764C14.082 27.6339 14.2153 27.6626 14.3302 27.6626C14.8118 27.6626 15.0526 27.3346 15.0526 26.6783C15.0526 26.1069 14.8853 25.8213 14.5511 25.8213Z" fill="#8E0092"/>
<path d="M16.3301 25.9671V25.8884C16.2177 25.9332 16.1154 26.0238 16.0233 26.1597C15.9308 26.2956 15.8822 26.4235 15.8772 26.5434V27.6774H15.6152V25.806H15.8772V26.401C15.9171 26.2563 15.9932 26.1198 16.1056 25.9911C16.218 25.8627 16.3451 25.7959 16.4875 25.791H16.5025C16.5525 25.791 16.5941 25.8078 16.6278 25.8415C16.6615 25.8752 16.6783 25.9171 16.6783 25.9668C16.6783 26.0165 16.6615 26.0579 16.6278 26.0903C16.5941 26.1227 16.5522 26.139 16.5025 26.139C16.4528 26.139 16.4114 26.1227 16.379 26.0903C16.3466 26.0579 16.3303 26.0168 16.3303 25.9668L16.3301 25.9671Z" fill="#8E0092"/>
<path d="M17.6974 27.6925C17.4341 27.6925 17.2202 27.6177 17.0556 27.468C16.8909 27.3184 16.8086 27.0874 16.8086 26.7757C16.8086 26.464 16.894 26.2219 17.0649 26.0497C17.2358 25.8776 17.4527 25.7916 17.716 25.7916C17.9793 25.7916 18.1932 25.8664 18.3579 26.0161C18.5225 26.1657 18.6048 26.3967 18.6048 26.7084C18.6048 27.0201 18.5194 27.2622 18.3485 27.4343C18.1777 27.6065 17.9604 27.6925 17.6974 27.6925ZM17.7217 25.8214C17.532 25.8214 17.3748 25.9055 17.2503 26.0741C17.1255 26.2424 17.0631 26.4769 17.0631 26.7778C17.0631 27.0786 17.1206 27.301 17.2353 27.4457C17.35 27.5905 17.5022 27.6627 17.692 27.6627C17.8817 27.6627 18.0386 27.5786 18.1634 27.41C18.2882 27.2417 18.3506 27.0072 18.3506 26.7063C18.3506 26.4055 18.2931 26.1831 18.1784 26.0384C18.0637 25.8936 17.9115 25.8214 17.7217 25.8214Z" fill="#8E0092"/>
<path d="M19.1532 25.6302V25.806H19.4489V25.8361H19.1532V27.6774H18.8912V25.8361H18.8125V25.806H18.8912V25.6302C18.8912 25.3584 18.9497 25.1642 19.067 25.0482C19.1843 24.9322 19.3738 24.873 19.6358 24.8704V24.9004C19.4636 24.903 19.3401 24.961 19.2653 25.0744C19.1905 25.188 19.153 25.3731 19.153 25.6302H19.1532Z" fill="#8E0092"/>
<path d="M19.9635 26.7646C19.9635 27.074 20.0179 27.301 20.1263 27.4457C20.2348 27.5905 20.3777 27.6627 20.5548 27.6627C20.8044 27.6627 21.0263 27.6252 21.221 27.5503L21.2321 27.5765C21.0325 27.6539 20.8072 27.6925 20.5566 27.6925C20.306 27.6925 20.102 27.6177 19.9448 27.468C19.7877 27.3184 19.709 27.0874 19.709 26.7757C19.709 26.464 19.7913 26.2219 19.956 26.0497C20.1206 25.8776 20.3303 25.7916 20.5848 25.7916C20.7894 25.7916 20.9615 25.8527 21.1014 25.9749C21.2412 26.0971 21.3111 26.2781 21.3111 26.5176V26.5551H19.9749C19.9674 26.6224 19.9637 26.6923 19.9637 26.7648L19.9635 26.7646ZM20.9178 25.9936C20.828 25.8789 20.712 25.8214 20.5698 25.8214C20.4277 25.8214 20.3008 25.8838 20.19 26.0086C20.079 26.1334 20.0085 26.3055 19.9785 26.5251H21.0563C21.0537 26.2856 21.0076 26.1085 20.9178 25.9936Z" fill="#8E0092"/>
<path d="M22.6695 25.9373C22.6297 25.9049 22.5655 25.8775 22.4769 25.855C22.3884 25.8324 22.3216 25.8213 22.2768 25.8213H22.1981C22.0635 25.8239 21.9661 25.8581 21.906 25.9244C21.8462 25.9904 21.8162 26.0647 21.8162 26.147C21.8162 26.2293 21.8423 26.2985 21.8949 26.3546C21.9472 26.4108 22.0127 26.4546 22.0914 26.4856C22.1701 26.517 22.2548 26.5524 22.3459 26.5923C22.437 26.6322 22.5217 26.6728 22.6004 26.714C22.6791 26.7552 22.7446 26.815 22.7969 26.8937C22.8492 26.9724 22.8756 27.0702 22.8756 27.1875C22.8756 27.3048 22.8345 27.4045 22.7521 27.4868C22.6698 27.5691 22.5781 27.624 22.4772 27.6515C22.3762 27.6789 22.2669 27.6926 22.1497 27.6926C21.8952 27.6926 21.7044 27.6365 21.577 27.5244L21.5995 27.5018C21.6495 27.5492 21.7235 27.5878 21.8222 27.6178C21.9208 27.6479 22.0161 27.6626 22.1085 27.6626C22.2556 27.6626 22.3772 27.622 22.4733 27.5409C22.5693 27.4599 22.6175 27.3589 22.6175 27.2378C22.6175 27.1166 22.5813 27.0195 22.509 26.9457C22.4365 26.8722 22.3488 26.8147 22.2452 26.7735C22.1416 26.7324 22.0376 26.6912 21.9327 26.65C21.8279 26.6089 21.7393 26.5514 21.6671 26.4779C21.5946 26.4044 21.5586 26.3189 21.5586 26.2216C21.5586 26.1242 21.5811 26.045 21.6259 25.9839C21.671 25.9228 21.7308 25.8798 21.8056 25.8547C21.9327 25.8122 22.0601 25.791 22.1872 25.791C22.4018 25.791 22.5691 25.8309 22.6887 25.9109L22.6701 25.937L22.6695 25.9373Z" fill="#8E0092"/>
<path d="M24.2125 25.9373C24.1726 25.9049 24.1084 25.8775 24.0199 25.855C23.9313 25.8324 23.8645 25.8213 23.8198 25.8213H23.741C23.6064 25.8239 23.5091 25.8581 23.449 25.9244C23.3892 25.9904 23.3592 26.0647 23.3592 26.147C23.3592 26.2293 23.3853 26.2985 23.4379 26.3546C23.4902 26.4108 23.5557 26.4546 23.6344 26.4856C23.7131 26.517 23.7977 26.5524 23.8889 26.5923C23.98 26.6322 24.0647 26.6728 24.1434 26.714C24.2221 26.7552 24.2876 26.815 24.3399 26.8937C24.3922 26.9724 24.4186 27.0702 24.4186 27.1875C24.4186 27.3048 24.3774 27.4045 24.2951 27.4868C24.2128 27.5691 24.1211 27.624 24.0201 27.6515C23.9192 27.6789 23.8099 27.6926 23.6926 27.6926C23.4381 27.6926 23.2473 27.6365 23.1199 27.5244L23.1425 27.5018C23.1924 27.5492 23.2665 27.5878 23.3651 27.6178C23.4638 27.6479 23.559 27.6626 23.6515 27.6626C23.7985 27.6626 23.9202 27.622 24.0163 27.5409C24.1123 27.4599 24.1605 27.3589 24.1605 27.2378C24.1605 27.1166 24.1242 27.0195 24.052 26.9457C23.9795 26.8722 23.8917 26.8147 23.7882 26.7735C23.6846 26.7324 23.5805 26.6912 23.4757 26.65C23.3708 26.6089 23.2823 26.5514 23.21 26.4779C23.1375 26.4044 23.1016 26.3189 23.1016 26.2216C23.1016 26.1242 23.1241 26.045 23.1689 25.9839C23.2139 25.9228 23.2737 25.8798 23.3486 25.8547C23.4757 25.8122 23.6031 25.791 23.7302 25.791C23.9448 25.791 24.1121 25.8309 24.2317 25.9109L24.213 25.937L24.2125 25.9373Z" fill="#8E0092"/>
<path d="M24.7052 25.3872C24.6752 25.3571 24.6602 25.3199 24.6602 25.2748C24.6602 25.2298 24.6752 25.192 24.7052 25.1606C24.7352 25.1296 24.7725 25.1138 24.8176 25.1138C24.8626 25.1138 24.9004 25.1293 24.9317 25.1606C24.9628 25.192 24.9786 25.2298 24.9786 25.2748C24.9786 25.3199 24.9631 25.3571 24.9317 25.3872C24.9004 25.4172 24.8626 25.4322 24.8176 25.4322C24.7725 25.4322 24.7352 25.4172 24.7052 25.3872ZM25.0048 27.6777C24.9025 27.6777 24.8246 27.6551 24.7707 27.6104C24.7171 27.5653 24.6889 27.5205 24.6866 27.4757L24.6829 27.412V25.8066H24.9449V27.412C24.9449 27.4845 24.9592 27.5399 24.9879 27.5785C25.0167 27.6173 25.0446 27.6378 25.0721 27.6404L25.1169 27.6479H25.2328V27.6779H25.0045L25.0048 27.6777Z" fill="#8E0092"/>
<path d="M26.2345 27.6925C25.9712 27.6925 25.7574 27.6177 25.5927 27.468C25.428 27.3184 25.3457 27.0874 25.3457 26.7757C25.3457 26.464 25.4311 26.2219 25.602 26.0497C25.7729 25.8776 25.9898 25.7916 26.2532 25.7916C26.5165 25.7916 26.7303 25.8664 26.895 26.0161C27.0596 26.1657 27.142 26.3967 27.142 26.7084C27.142 27.0201 27.0565 27.2622 26.8856 27.4343C26.7148 27.6065 26.4976 27.6925 26.2345 27.6925ZM26.2588 25.8214C26.0691 25.8214 25.9119 25.9055 25.7874 26.0741C25.6626 26.2424 25.6002 26.4769 25.6002 26.7778C25.6002 27.0786 25.6577 27.301 25.7724 27.4457C25.8871 27.5905 26.0393 27.6627 26.2291 27.6627C26.4188 27.6627 26.5757 27.5786 26.7005 27.41C26.8253 27.2417 26.8877 27.0072 26.8877 26.7063C26.8877 26.4055 26.8302 26.1831 26.7155 26.0384C26.6009 25.8936 26.4486 25.8214 26.2588 25.8214Z" fill="#8E0092"/>
<path d="M28.9203 27.6777C28.8181 27.6777 28.7401 27.6552 28.6863 27.6104C28.6327 27.5654 28.6045 27.5206 28.6021 27.4758L28.5985 27.4121V26.2369C28.5985 26.0399 28.5473 25.9138 28.445 25.859C28.3927 25.8341 28.3277 25.8214 28.2503 25.8214C28.0906 25.8214 27.9471 25.8846 27.82 26.0104C27.6926 26.1365 27.6292 26.2494 27.6292 26.3491V27.6777H27.3672V25.8064H27.6292V26.2331C27.6717 26.1259 27.7501 26.0254 27.8651 25.9317C27.9797 25.8382 28.1058 25.7914 28.243 25.7914C28.3803 25.7914 28.4919 25.8046 28.5781 25.8307C28.6643 25.8569 28.7272 25.8939 28.7671 25.941C28.8295 26.0184 28.8605 26.1181 28.8605 26.2403V27.4118C28.8605 27.4843 28.8748 27.5397 28.9035 27.5783C28.9322 27.6172 28.9615 27.6376 28.9915 27.6402L29.0327 27.6477H29.1487V27.6777H28.9203Z" fill="#8E0092"/>
<path d="M30.8807 27.6777C30.7108 27.6777 30.5949 27.6454 30.5327 27.5804C30.4752 27.5255 30.4468 27.4781 30.4468 27.4382V27.3595C30.3246 27.5817 30.1286 27.6927 29.8591 27.6927C29.5448 27.6927 29.3664 27.5506 29.3239 27.2661C29.319 27.236 29.3164 27.2057 29.3164 27.1744C29.3164 27.1431 29.3213 27.1089 29.3314 27.0714C29.3413 27.0338 29.37 26.9927 29.4176 26.9479C29.5124 26.858 29.7208 26.8032 30.0426 26.7832C30.1224 26.7757 30.1962 26.7721 30.2635 26.7721C30.3308 26.7721 30.3919 26.7747 30.4468 26.7796V26.1582C30.4418 26.1559 30.4418 26.144 30.4468 26.1228C30.4517 26.1015 30.4473 26.0741 30.4336 26.0404C30.4198 26.0068 30.4017 25.9736 30.3792 25.9413C30.3567 25.9089 30.3168 25.8809 30.2593 25.8571C30.2018 25.8333 30.127 25.8217 30.0349 25.8217C29.9427 25.8217 29.8347 25.8385 29.7112 25.8721C29.5877 25.9058 29.4974 25.9389 29.4399 25.9713L29.4249 25.9452C29.647 25.8429 29.8728 25.7916 30.1022 25.7916C30.359 25.7916 30.5288 25.8377 30.6112 25.9301C30.6759 26.0026 30.7085 26.0787 30.7085 26.1585V27.4123C30.7085 27.4848 30.7228 27.5402 30.7515 27.5788C30.7802 27.6177 30.8095 27.6381 30.8395 27.6407L30.8807 27.6482H30.9967V27.6782H30.8807V27.6777ZM29.9189 27.6627C30.0512 27.6627 30.1703 27.6171 30.2762 27.526C30.3823 27.4349 30.439 27.3471 30.4465 27.2622V26.8094C30.3792 26.8044 30.3111 26.8019 30.2425 26.8019C30.1739 26.8019 30.1058 26.8055 30.0385 26.813C29.8487 26.8355 29.7252 26.878 29.668 26.9404C29.6105 27.0028 29.582 27.0887 29.582 27.1985C29.582 27.2184 29.5833 27.241 29.5857 27.2658C29.6082 27.5304 29.719 27.6624 29.9189 27.6624V27.6627Z" fill="#8E0092"/>
<path d="M31.7525 27.6776C31.533 27.6776 31.3945 27.6202 31.337 27.5055C31.3246 27.4806 31.3184 27.4581 31.3184 27.4381V24.8745H31.5804V27.412C31.5804 27.4845 31.5946 27.5399 31.6233 27.5785C31.6521 27.6173 31.6813 27.6378 31.7114 27.6404L31.7525 27.6479H31.8685V27.6779H31.7525V27.6776Z" fill="#8E0092"/>
<path d="M31.9999 10.4531V16.4979C31.7068 16.0974 31.3601 15.7365 30.9723 15.4279C30.9368 15.3981 30.9 15.3699 30.8633 15.343V10.4531H31.9999Z" fill="#8E0092"/>
<path d="M31.9982 19.8424V23.9072H30.8617V19.8424C30.8617 17.96 29.3344 16.433 27.4522 16.433H24.2465C24.1333 16.433 24.0427 16.5249 24.0427 16.6383V23.9074H22.8906V10.4531H24.0427V15.3106H27.8812C28.5492 15.3743 29.1762 15.5825 29.7295 15.9051C29.9433 16.0267 30.1455 16.1684 30.3338 16.3227C30.5235 16.4798 30.7004 16.6497 30.8617 16.8337C31.0797 17.0815 31.2707 17.3502 31.4307 17.6405L31.4323 17.6418C31.7932 18.2942 31.9985 19.0445 31.9985 19.8427L31.9982 19.8424Z" fill="#8E0092"/>
<path d="M10.0013 18.6365H6.77434C4.84527 18.6365 3.28125 20.2005 3.28125 22.1296C3.28125 23.0947 3.67193 23.9667 4.30443 24.5992C4.93563 25.2304 5.81045 25.6211 6.77434 25.6211C8.70341 25.6211 10.2674 24.0586 10.2674 22.1296V18.9011C10.2674 18.7553 10.1486 18.6365 10.0013 18.6365ZM9.55959 22.1296C9.55959 23.6651 8.30988 24.9135 6.77434 24.9135C5.2388 24.9135 3.98883 23.6651 3.98883 22.1296C3.98883 20.594 5.23854 19.3443 6.77434 19.3443H9.55959V22.1296Z" fill="#8E0092"/>
<path d="M10.2674 9.78499V13.0218C10.2674 13.1634 10.1527 13.2778 10.0111 13.2778H6.77434C5.81045 13.2778 4.93589 12.8871 4.30443 12.2546C3.67167 11.6219 3.28125 10.7502 3.28125 9.78499C3.28125 8.81981 3.67193 7.94783 4.30443 7.31534C4.93563 6.68414 5.81045 6.29346 6.77434 6.29346C8.70341 6.29346 10.2674 7.85592 10.2674 9.78499Z" fill="#8E0092"/>
<path d="M20.878 13.2556C20.878 13.8472 20.7408 14.3453 20.4661 14.7502C20.1901 15.1549 19.8165 15.4622 19.3451 15.6688C19.2969 15.69 19.2488 15.7099 19.1993 15.7296C18.711 15.5075 18.1873 15.37 17.6438 15.3193C18.1987 15.2543 18.653 15.1013 19.0025 14.8592C19.4851 14.5281 19.7259 14.0341 19.7259 13.3801C19.7259 12.7261 19.4854 12.221 19.0025 11.894C18.5199 11.567 17.8419 11.4029 16.9702 11.4029H13.4983V15.2978H12.3462V11.3744C12.3446 11.3842 12.3446 11.3928 12.3446 11.4026V9.78759C12.3446 6.69657 9.82969 4.18135 6.73841 4.18135C3.64714 4.18135 1.13217 6.69631 1.13217 9.78759C1.13217 12.8789 3.64714 15.3938 6.73841 15.3938H12.2753V16.526H6.73841C3.64739 16.526 1.13217 19.0397 1.13217 22.1307C1.13217 25.2217 3.64714 27.7369 6.73841 27.7369C9.82969 27.7369 12.3446 25.222 12.3446 22.1307V21.0239C12.383 21.2616 12.441 21.4938 12.5158 21.7216C12.5427 21.8052 12.5725 21.8886 12.6035 21.9694C12.7918 22.4605 13.0538 22.9092 13.3735 23.3027C12.8187 26.4618 10.0547 28.8694 6.73841 28.8694C3.02318 28.8694 0 25.8477 0 22.1309C0 19.3768 1.66162 17.0032 4.03497 15.96C1.66137 14.9169 0 12.542 0 9.78785C0 6.07107 3.02318 3.04944 6.73841 3.04944C10.4536 3.04944 13.4768 6.07107 13.4768 9.78785V10.453H17.0478C18.2621 10.453 19.2047 10.6979 19.8743 11.1846C20.5438 11.6729 20.8778 12.3637 20.8778 13.2553L20.878 13.2556Z" fill="#8E0092"/>
<path d="M20.8888 20.2047C20.8888 21.2279 20.474 22.1537 19.8032 22.823C19.1337 23.4925 18.2081 23.907 17.185 23.907C15.5404 23.907 14.1447 22.8341 13.6649 21.3509C13.5461 20.9899 13.4824 20.605 13.4824 20.2044V16.7134C13.4824 16.5959 13.5777 16.5006 13.6952 16.5006H17.185C18.2081 16.5006 19.1337 16.9154 19.8032 17.5849C19.9902 17.7718 20.1571 17.9784 20.2985 18.2006C20.6651 18.7668 20.8803 19.4389 20.8872 20.1607C20.8888 20.1749 20.8888 20.1905 20.8888 20.2044V20.2047Z" fill="#8E0092"/>
</g>
<defs>
<clipPath id="clip0_417_2">
<rect width="32" height="32" fill="white"/>
</clipPath>
</defs>
</svg>
