<svg width="832" height="832" viewBox="0 0 832 832" fill="none" xmlns="http://www.w3.org/2000/svg">
<g clip-path="url(#clip0_18_2)">
<rect width="832" height="832" rx="416" fill="white"/>
<path d="M367.323 622.053H372.793V631.738C373.679 629.344 375.317 627.079 377.716 624.939C380.11 622.804 382.818 621.734 385.839 621.734C396.411 621.734 401.696 627.933 401.696 640.326C401.696 654.388 394.87 661.42 381.229 661.42C378.781 661.42 375.965 660.847 372.793 659.701V680.639H367.323V622.042V622.053ZM385.758 622.366C382.526 622.366 379.613 623.761 377.008 626.544C374.403 629.333 372.998 631.846 372.787 634.083V659.004C375.965 660.204 378.748 660.804 381.148 660.804C391.201 660.804 396.227 653.956 396.227 640.255C396.227 628.327 392.736 622.366 385.758 622.366Z" fill="#8E0092"/>
<path d="M422.895 625.409V623.766C420.549 624.701 418.414 626.593 416.49 629.43C414.561 632.267 413.545 634.937 413.442 637.44V661.112H407.973V622.047H413.442V634.467C414.274 631.446 415.863 628.598 418.209 625.912C420.555 623.231 423.208 621.837 426.181 621.734H426.494C427.537 621.734 428.407 622.085 429.11 622.788C429.813 623.49 430.164 624.366 430.164 625.404C430.164 626.441 429.813 627.306 429.11 627.982C428.407 628.657 427.532 628.998 426.494 628.998C425.457 628.998 424.592 628.657 423.916 627.982C423.241 627.306 422.9 626.447 422.9 625.404L422.895 625.409Z" fill="#8E0092"/>
<path d="M451.438 661.427C445.942 661.427 441.478 659.865 438.04 656.741C434.603 653.617 432.884 648.797 432.884 642.289C432.884 635.782 434.668 630.729 438.235 627.135C441.802 623.541 446.331 621.747 451.827 621.747C457.324 621.747 461.788 623.308 465.225 626.432C468.663 629.556 470.381 634.377 470.381 640.884C470.381 647.391 468.598 652.445 465.031 656.039C461.464 659.633 456.929 661.427 451.438 661.427ZM451.946 622.368C447.985 622.368 444.704 624.125 442.105 627.643C439.5 631.156 438.197 636.052 438.197 642.333C438.197 648.613 439.397 653.255 441.791 656.276C444.185 659.298 447.363 660.806 451.325 660.806C455.286 660.806 458.561 659.049 461.167 655.531C463.772 652.018 465.074 647.121 465.074 640.841C465.074 634.561 463.874 629.918 461.48 626.897C459.086 623.876 455.908 622.368 451.946 622.368Z" fill="#8E0092"/>
<path d="M481.829 618.377V622.047H488.001V622.674H481.829V661.111H476.359V622.674H474.716V622.047H476.359V618.377C476.359 612.702 477.581 608.649 480.029 606.228C482.477 603.806 486.433 602.569 491.903 602.515V603.142C488.309 603.196 485.731 604.406 484.169 606.774C482.607 609.146 481.823 613.01 481.823 618.377H481.829Z" fill="#8E0092"/>
<path d="M498.743 642.057C498.743 648.515 499.878 653.255 502.143 656.276C504.407 659.298 507.39 660.806 511.087 660.806C516.297 660.806 520.929 660.022 524.993 658.46L525.226 659.006C521.059 660.622 516.357 661.427 511.125 661.427C505.893 661.427 501.635 659.865 498.354 656.741C495.073 653.617 493.43 648.797 493.43 642.289C493.43 635.782 495.149 630.729 498.586 627.135C502.024 623.541 506.401 621.747 511.714 621.747C515.984 621.747 519.578 623.022 522.496 625.573C525.415 628.124 526.874 631.902 526.874 636.901V637.685H498.981C498.824 639.09 498.748 640.549 498.748 642.062L498.743 642.057ZM518.664 625.962C516.789 623.568 514.368 622.368 511.401 622.368C508.434 622.368 505.785 623.671 503.472 626.276C501.154 628.881 499.683 632.475 499.057 637.058H521.556C521.502 632.058 520.54 628.362 518.664 625.962Z" fill="#8E0092"/>
<path d="M555.234 624.787C554.402 624.112 553.061 623.539 551.213 623.069C549.365 622.599 547.97 622.366 547.035 622.366H545.392C542.582 622.42 540.55 623.134 539.296 624.517C538.047 625.895 537.421 627.446 537.421 629.165C537.421 630.884 537.966 632.327 539.063 633.5C540.155 634.672 541.523 635.586 543.166 636.234C544.809 636.888 546.576 637.629 548.478 638.461C550.381 639.293 552.148 640.142 553.791 641.001C555.434 641.861 556.801 643.109 557.893 644.752C558.985 646.395 559.536 648.438 559.536 650.886C559.536 653.335 558.677 655.415 556.958 657.134C555.239 658.853 553.326 659.998 551.218 660.571C549.111 661.144 546.83 661.431 544.382 661.431C539.069 661.431 535.086 660.258 532.427 657.918L532.897 657.447C533.94 658.436 535.486 659.242 537.545 659.869C539.604 660.496 541.593 660.804 543.522 660.804C546.592 660.804 549.132 659.955 551.137 658.263C553.142 656.572 554.148 654.464 554.148 651.935C554.148 649.405 553.391 647.379 551.883 645.838C550.37 644.303 548.538 643.104 546.376 642.244C544.214 641.385 542.041 640.526 539.853 639.666C537.664 638.807 535.815 637.607 534.307 636.072C532.794 634.537 532.043 632.754 532.043 630.722C532.043 628.69 532.513 627.036 533.448 625.76C534.389 624.485 535.637 623.588 537.199 623.063C539.853 622.177 542.512 621.734 545.165 621.734C549.646 621.734 553.137 622.566 555.634 624.236L555.245 624.782L555.234 624.787Z" fill="#8E0092"/>
<path d="M587.444 624.787C586.611 624.112 585.271 623.539 583.423 623.069C581.574 622.599 580.18 622.366 579.245 622.366H577.602C574.792 622.42 572.759 623.134 571.506 624.517C570.257 625.895 569.63 627.446 569.63 629.165C569.63 630.884 570.176 632.327 571.273 633.5C572.365 634.672 573.732 635.586 575.375 636.234C577.018 636.888 578.786 637.629 580.688 638.461C582.59 639.293 584.358 640.142 586.001 641.001C587.644 641.861 589.011 643.109 590.103 644.752C591.195 646.395 591.746 648.438 591.746 650.886C591.746 653.335 590.886 655.415 589.168 657.134C587.449 658.853 585.536 659.998 583.428 660.571C581.32 661.144 579.04 661.431 576.591 661.431C571.279 661.431 567.295 660.258 564.636 657.918L565.107 657.447C566.15 658.436 567.695 659.242 569.754 659.869C571.814 660.496 573.803 660.804 575.732 660.804C578.802 660.804 581.342 659.955 583.347 658.263C585.352 656.572 586.357 654.464 586.357 651.935C586.357 649.405 585.601 647.379 584.093 645.838C582.58 644.303 580.747 643.104 578.586 642.244C576.424 641.385 574.251 640.526 572.062 639.666C569.873 638.807 568.025 637.607 566.517 636.072C565.004 634.537 564.253 632.754 564.253 630.722C564.253 628.69 564.723 627.036 565.658 625.76C566.598 624.485 567.847 623.588 569.409 623.063C572.062 622.177 574.721 621.734 577.375 621.734C581.855 621.734 585.347 622.566 587.844 624.236L587.455 624.782L587.444 624.787Z" fill="#8E0092"/>
<path d="M597.729 613.303C597.102 612.676 596.789 611.898 596.789 610.958C596.789 610.017 597.102 609.228 597.729 608.574C598.356 607.926 599.134 607.596 600.075 607.596C601.015 607.596 601.804 607.92 602.458 608.574C603.107 609.228 603.436 610.017 603.436 610.958C603.436 611.898 603.112 612.676 602.458 613.303C601.804 613.93 601.015 614.244 600.075 614.244C599.134 614.244 598.356 613.93 597.729 613.303ZM603.982 661.118C601.847 661.118 600.22 660.648 599.096 659.713C597.978 658.772 597.388 657.837 597.34 656.902L597.264 655.573V622.059H602.734V655.573C602.734 657.086 603.031 658.243 603.631 659.048C604.231 659.858 604.814 660.285 605.387 660.34L606.322 660.496H608.744V661.123H603.977L603.982 661.118Z" fill="#8E0092"/>
<path d="M629.654 661.427C624.157 661.427 619.693 659.865 616.255 656.741C612.818 653.617 611.099 648.797 611.099 642.289C611.099 635.782 612.883 630.729 616.45 627.135C620.017 623.541 624.546 621.747 630.043 621.747C635.539 621.747 640.003 623.308 643.441 626.432C646.878 629.556 648.597 634.377 648.597 640.884C648.597 647.391 646.813 652.445 643.246 656.039C639.679 659.633 635.145 661.427 629.654 661.427ZM630.162 622.368C626.2 622.368 622.919 624.125 620.32 627.643C617.715 631.156 616.412 636.052 616.412 642.333C616.412 648.613 617.612 653.255 620.006 656.276C622.4 659.298 625.578 660.806 629.54 660.806C633.502 660.806 636.777 659.049 639.382 655.531C641.987 652.018 643.289 647.121 643.289 640.841C643.289 634.561 642.089 629.918 639.695 626.897C637.301 623.876 634.123 622.368 630.162 622.368Z" fill="#8E0092"/>
<path d="M685.72 661.119C683.586 661.119 681.959 660.649 680.835 659.714C679.716 658.774 679.127 657.839 679.078 656.904L679.003 655.574V631.043C679.003 626.93 677.932 624.298 675.798 623.152C674.706 622.633 673.349 622.368 671.733 622.368C668.399 622.368 665.405 623.687 662.751 626.314C660.092 628.946 658.768 631.302 658.768 633.383V661.119H653.298V622.055H658.768V630.962C659.654 628.724 661.292 626.627 663.691 624.671C666.086 622.72 668.718 621.742 671.582 621.742C674.446 621.742 676.776 622.017 678.576 622.563C680.375 623.109 681.689 623.882 682.521 624.865C683.823 626.481 684.472 628.562 684.472 631.113V655.569C684.472 657.082 684.769 658.239 685.369 659.044C685.969 659.855 686.58 660.282 687.207 660.336L688.066 660.492H690.487V661.119H685.72Z" fill="#8E0092"/>
<path d="M726.645 661.119C723.099 661.119 720.678 660.443 719.381 659.087C718.181 657.941 717.587 656.952 717.587 656.12V654.477C715.036 659.114 710.944 661.432 705.318 661.432C698.757 661.432 695.033 658.465 694.147 652.526C694.044 651.899 693.99 651.266 693.99 650.612C693.99 649.959 694.093 649.245 694.304 648.461C694.509 647.678 695.109 646.818 696.103 645.883C698.081 644.008 702.432 642.862 709.15 642.446C710.815 642.289 712.355 642.214 713.76 642.214C715.165 642.214 716.441 642.268 717.587 642.37V629.399C717.484 629.351 717.484 629.102 717.587 628.659C717.689 628.216 717.597 627.643 717.311 626.94C717.025 626.238 716.646 625.546 716.176 624.87C715.706 624.195 714.873 623.611 713.674 623.114C712.474 622.617 710.912 622.373 708.988 622.373C707.064 622.373 704.81 622.725 702.232 623.427C699.654 624.13 697.768 624.822 696.568 625.497L696.255 624.951C700.892 622.817 705.605 621.747 710.393 621.747C715.754 621.747 719.3 622.709 721.019 624.638C722.37 626.151 723.051 627.74 723.051 629.405V655.579C723.051 657.093 723.348 658.249 723.948 659.054C724.548 659.865 725.158 660.292 725.785 660.346L726.645 660.503H729.066V661.13H726.645V661.119ZM706.567 660.806C709.328 660.806 711.815 659.854 714.025 657.952C716.241 656.049 717.424 654.217 717.581 652.445V642.992C716.176 642.889 714.755 642.835 713.322 642.835C711.89 642.835 710.469 642.911 709.064 643.068C705.102 643.538 702.524 644.424 701.33 645.727C700.13 647.029 699.535 648.824 699.535 651.115C699.535 651.531 699.562 652.001 699.611 652.52C700.081 658.044 702.394 660.8 706.567 660.8V660.806Z" fill="#8E0092"/>
<path d="M744.845 661.117C740.262 661.117 737.37 659.917 736.17 657.523C735.911 657.004 735.781 656.534 735.781 656.118V602.601H741.251V655.572C741.251 657.085 741.548 658.242 742.148 659.047C742.748 659.858 743.358 660.285 743.985 660.339L744.845 660.495H747.266V661.122H744.845V661.117Z" fill="#8E0092"/>
<path d="M750.006 301.552V427.738C743.888 419.377 736.651 411.843 728.555 405.401C727.815 404.78 727.047 404.191 726.28 403.628V301.552H750.006Z" fill="#8E0092"/>
<path d="M749.971 497.555V582.407H726.245V497.555C726.245 458.258 694.363 426.382 655.072 426.382H588.152C585.79 426.382 583.898 428.3 583.898 430.668V582.412H559.848V301.552H583.898V402.953H664.027C677.971 404.282 691.061 408.628 702.61 415.362C707.075 417.902 711.296 420.858 715.225 424.079C719.186 427.36 722.878 430.905 726.245 434.748C730.795 439.92 734.784 445.53 738.124 451.589L738.156 451.616C745.69 465.235 749.976 480.898 749.976 497.56L749.971 497.555Z" fill="#8E0092"/>
<path d="M290.775 472.383H223.412C183.143 472.383 150.494 505.032 150.494 545.302C150.494 565.45 158.649 583.653 171.853 596.856C185.029 610.033 203.291 618.188 223.412 618.188C263.682 618.188 296.331 585.571 296.331 545.302V477.906C296.331 474.864 293.85 472.383 290.775 472.383ZM281.555 545.302C281.555 577.356 255.467 603.417 223.412 603.417C191.358 603.417 165.264 577.356 165.264 545.302C165.264 513.247 191.352 487.159 223.412 487.159H281.555V545.302Z" fill="#8E0092"/>
<path d="M296.331 287.607V355.175C296.331 358.131 293.937 360.52 290.981 360.52H223.412C203.291 360.52 185.034 352.365 171.853 339.161C158.644 325.952 150.494 307.755 150.494 287.607C150.494 267.458 158.649 249.256 171.853 236.052C185.029 222.876 203.291 214.72 223.412 214.72C263.682 214.72 296.331 247.337 296.331 287.607Z" fill="#8E0092"/>
<path d="M517.832 360.055C517.832 372.404 514.968 382.803 509.233 391.255C503.472 399.703 495.673 406.118 485.831 410.431C484.826 410.874 483.821 411.29 482.789 411.701C472.596 407.064 461.662 404.194 450.318 403.135C461.9 401.778 471.385 398.584 478.681 393.531C488.755 386.618 493.782 376.306 493.782 362.654C493.782 349.002 488.761 338.458 478.681 331.632C468.607 324.806 454.452 321.379 436.255 321.379H363.779V402.686H339.729V320.785C339.697 320.99 339.697 321.169 339.697 321.374V287.66C339.697 223.135 287.196 170.629 222.665 170.629C158.135 170.629 105.634 223.129 105.634 287.66C105.634 352.191 158.135 404.691 222.665 404.691H338.248V428.325H222.665C158.14 428.325 105.634 480.799 105.634 545.324C105.634 609.85 158.135 662.355 222.665 662.355C287.196 662.355 339.697 609.855 339.697 545.324V522.22C340.496 527.181 341.707 532.029 343.269 536.785C343.831 538.531 344.453 540.271 345.101 541.957C349.03 552.21 354.5 561.576 361.174 569.791C349.592 635.738 291.893 685.995 222.665 685.995C145.109 685.995 82 622.918 82 545.33C82 487.836 116.687 438.286 166.231 416.511C116.681 394.736 82 345.16 82 287.665C82 210.077 145.109 147 222.665 147C300.221 147 363.331 210.077 363.331 287.665V301.55H437.876C463.224 301.55 482.902 306.663 496.878 316.823C510.855 327.016 517.827 341.436 517.827 360.049L517.832 360.055Z" fill="#8E0092"/>
<path d="M518.057 505.119C518.057 526.478 509.399 545.805 495.396 559.776C481.419 573.752 462.098 582.405 440.739 582.405C406.409 582.405 377.273 560.009 367.258 529.046C364.777 521.512 363.448 513.475 363.448 505.114V432.239C363.448 429.785 365.437 427.796 367.89 427.796H440.739C462.098 427.796 481.419 436.454 495.396 450.43C499.298 454.333 502.784 458.645 505.735 463.283C513.388 475.102 517.879 489.133 518.025 504.201C518.057 504.498 518.057 504.822 518.057 505.114V505.119Z" fill="#8E0092"/>
</g>
<defs>
<clipPath id="clip0_18_2">
<rect width="832" height="832" fill="white"/>
</clipPath>
</defs>
</svg>
