<?xml version="1.0" encoding="UTF-8" standalone="no"?>
<!DOCTYPE svg PUBLIC "-//W3C//DTD SVG 1.1//EN" "http://www.w3.org/Graphics/SVG/1.1/DTD/svg11.dtd">
<svg width="100%" height="100%" viewBox="0 0 1502 370" version="1.1" xmlns="http://www.w3.org/2000/svg" xmlns:xlink="http://www.w3.org/1999/xlink" xml:space="preserve" xmlns:serif="http://www.serif.com/" style="fill-rule:evenodd;clip-rule:evenodd;stroke-linejoin:round;stroke-miterlimit:2;">
    <g id="Artboard1" transform="matrix(0.782292,0,0,0.342593,0,0)">
        <rect x="0" y="0" width="1920" height="1080" style="fill:none;"/>
        <g transform="matrix(1.278296,0,0,2.918919,-267.163782,-1036.216216)">
            <path d="M598.93,507.04C590.52,502.14 580.9,499.69 570.07,499.69C559.24,499.69 549.77,502.21 541.21,507.26C532.65,512.31 525.92,519.22 521.02,528C516.12,536.78 513.67,546.87 513.67,558.29C513.67,569.71 516.23,579.84 521.35,588.69C526.47,597.54 533.57,604.49 542.64,609.54C551.71,614.59 562.24,617.11 574.24,617.11C583.46,617.11 591.91,615.5 599.59,612.28C607.27,609.06 613.67,604.38 618.79,598.23L610.01,588.13C605.62,593.25 600.39,597.06 594.32,599.54C588.25,602.03 581.7,603.27 574.68,603.27C565.75,603.27 557.82,601.4 550.87,597.67C543.92,593.94 538.51,588.75 534.63,582.09C531.38,576.51 529.51,570.18 528.99,563.11L625.82,563.11C625.82,562.23 625.85,561.39 625.93,560.59C626,559.79 626.04,559.02 626.04,558.29C626.04,546.73 623.63,536.53 618.8,527.68C613.97,518.83 607.35,511.95 598.94,507.05L598.93,507.04ZM534.08,533.92C537.59,527.34 542.49,522.22 548.78,518.56C555.07,514.9 562.17,513.07 570.07,513.07C577.97,513.07 585.21,514.9 591.36,518.56C597.5,522.22 602.37,527.3 605.95,533.81C608.86,539.09 610.57,544.99 611.11,551.48L529.04,551.48C529.61,545.03 531.27,539.17 534.07,533.92L534.08,533.92Z" style="fill:rgb(22,22,22);fill-rule:nonzero;"/>
        </g>
        <g transform="matrix(1.278296,0,0,2.918919,-267.163782,-1036.216216)">
            <path d="M680.98,499.69C671.91,499.69 663.28,501.04 655.08,503.75C646.88,506.46 639.86,510.3 634.01,515.27L641.03,526.9C645.71,522.81 651.42,519.51 658.15,517.02C664.88,514.53 671.98,513.29 679.44,513.29C690.27,513.29 698.42,515.92 703.91,521.19C709.4,526.46 712.14,533.99 712.14,543.79L712.14,550.81L675.49,550.81C664.52,550.81 655.77,552.31 649.27,555.31C642.76,558.31 638.08,562.26 635.22,567.16C632.37,572.06 630.94,577.51 630.94,583.51C630.94,590.09 632.62,595.91 635.99,600.96C639.35,606.01 644.22,609.96 650.58,612.81C656.94,615.66 664.44,617.09 673.07,617.09C684.04,617.09 693.15,614.82 700.39,610.29C705.68,606.98 709.8,602.84 712.79,597.89L712.79,616L727.71,616L727.71,544.46C727.71,529.39 723.65,518.16 715.53,510.77C707.41,503.38 695.89,499.69 680.96,499.69L680.98,499.69ZM698.21,598.78C691.85,602.81 684.27,604.82 675.5,604.82C666.28,604.82 659.11,602.84 653.99,598.89C648.87,594.94 646.31,589.67 646.31,583.09C646.31,577.24 648.47,572.34 652.78,568.39C657.09,564.44 664.81,562.47 675.93,562.47L712.14,562.47L712.14,581.34C709.21,588.95 704.57,594.77 698.2,598.79L698.21,598.78Z" style="fill:rgb(22,22,22);fill-rule:nonzero;"/>
        </g>
        <g transform="matrix(1.278296,0,0,2.918919,-267.163782,-1036.216216)">
            <path d="M831.39,561.14C831.39,569.92 829.82,577.46 826.67,583.74C823.52,590.03 818.99,594.82 813.06,598.11C807.13,601.4 800.15,603.05 792.1,603.05C781.13,603.05 772.6,599.94 766.53,593.72C760.46,587.5 757.42,578.25 757.42,565.96L757.42,500.78L741.84,500.78L741.84,567.72C741.84,578.69 743.85,587.84 747.88,595.15C751.9,602.47 757.57,607.95 764.89,611.61C772.21,615.27 780.76,617.1 790.57,617.1C800.38,617.1 809.77,614.72 817.45,609.97C823.62,606.15 828.47,601.11 832.04,594.88L832.04,616.01L846.96,616.01L846.96,500.79L831.38,500.79L831.38,561.14L831.39,561.14Z" style="fill:rgb(22,22,22);fill-rule:nonzero;"/>
        </g>
        <g transform="matrix(1.278296,0,0,2.918919,-267.163782,-1036.216216)">
            <path d="M910.26,603.71C903.82,603.71 898.88,601.88 895.45,598.22C892.01,594.56 890.29,589.37 890.29,582.64L890.29,513.73L925.4,513.73L925.4,500.78L890.29,500.78L890.29,475.32L874.71,475.32L874.71,500.78L854.08,500.78L854.08,513.73L874.71,513.73L874.71,583.52C874.71,594.2 877.63,602.47 883.49,608.32C889.34,614.17 897.68,617.1 908.51,617.1C913.04,617.1 917.47,616.44 921.79,615.13C926.1,613.81 929.8,611.77 932.87,608.98L927.38,597.79C922.84,601.74 917.14,603.71 910.26,603.71Z" style="fill:rgb(22,22,22);fill-rule:nonzero;"/>
        </g>
        <g transform="matrix(1.278296,0,0,2.918919,-267.163782,-1036.216216)">
            <path d="M1034.77,500.79L991.34,598.71L947.86,500.79L931.62,500.79L983.12,615.71L978.14,626.98C974.77,634.15 971.23,639.16 967.5,642.01C963.77,644.86 959.34,646.29 954.22,646.29C949.97,646.29 946.13,645.52 942.7,643.99C939.26,642.45 936.08,640.29 933.15,637.52L925.91,649.15C929.42,652.66 933.63,655.3 938.53,657.05C943.43,658.81 948.59,659.68 954,659.68C959.41,659.68 964.61,658.76 969.14,656.94C973.67,655.11 977.88,652 981.76,647.61C985.63,643.22 989.18,637.3 992.4,629.83L1050.12,500.79L1034.76,500.79L1034.77,500.79Z" style="fill:rgb(22,22,22);fill-rule:nonzero;"/>
        </g>
        <g transform="matrix(1.278296,0,0,2.918919,-267.163782,-1036.216216)">
            <path d="M1252.55,462.38L1252.55,547.59C1248.42,541.94 1243.53,536.86 1238.06,532.51C1237.56,532.09 1237.04,531.69 1236.52,531.31L1236.52,462.38L1252.55,462.38Z" style="fill:rgb(142,0,146);fill-rule:nonzero;"/>
            <path d="M1252.55,594.74L1252.55,652.04L1236.53,652.04L1236.53,594.74C1236.53,568.2 1215,546.68 1188.47,546.68L1143.28,546.68C1141.68,546.68 1140.41,547.98 1140.41,549.57L1140.41,652.04L1124.17,652.04L1124.17,462.38L1140.41,462.38L1140.41,530.85L1194.52,530.85C1203.94,531.75 1212.78,534.68 1220.58,539.23C1223.59,540.95 1226.45,542.94 1229.1,545.12C1231.77,547.33 1234.27,549.73 1236.54,552.32C1239.61,555.81 1242.31,559.6 1244.56,563.69L1244.58,563.71C1249.67,572.91 1252.56,583.48 1252.56,594.73L1252.55,594.74Z" style="fill:rgb(142,0,146);fill-rule:nonzero;"/>
        </g>
        <g transform="matrix(1.278296,0,0,2.918919,-267.163782,-1036.216216)">
            <path d="M1349.51,507.15C1340.66,502.18 1330.53,499.69 1319.11,499.69C1307.69,499.69 1297.82,502.18 1289.04,507.15C1280.26,512.13 1273.31,519 1268.19,527.78C1263.07,536.56 1260.51,546.73 1260.51,558.29C1260.51,569.85 1263.07,579.84 1268.19,588.69C1273.31,597.54 1280.3,604.49 1289.15,609.54C1298,614.59 1307.99,617.11 1319.11,617.11C1330.23,617.11 1340.47,614.59 1349.4,609.54C1358.32,604.49 1365.31,597.54 1370.36,588.69C1375.41,579.84 1377.93,569.71 1377.93,558.29C1377.93,546.87 1375.41,536.56 1370.36,527.78C1365.31,519 1358.36,512.13 1349.51,507.15ZM1356.54,581.88C1352.81,588.68 1347.72,593.95 1341.29,597.68C1334.85,601.41 1327.46,603.28 1319.12,603.28C1310.78,603.28 1303.83,601.41 1297.39,597.68C1290.95,593.95 1285.83,588.68 1282.03,581.88C1278.22,575.08 1276.32,567.21 1276.32,558.29C1276.32,549.37 1278.22,541.32 1282.03,534.59C1285.83,527.86 1290.95,522.63 1297.39,518.9C1303.83,515.17 1311.14,513.3 1319.34,513.3C1327.54,513.3 1334.85,515.17 1341.29,518.9C1347.73,522.63 1352.81,527.86 1356.54,534.59C1360.27,541.32 1362.14,549.22 1362.14,558.29C1362.14,567.36 1360.28,575.08 1356.54,581.88Z" style="fill:rgb(22,22,22);fill-rule:nonzero;"/>
        </g>
        <g transform="matrix(1.278296,0,0,2.918919,-267.163782,-1036.216216)">
            <path d="M1475.46,561.14C1475.46,569.92 1473.89,577.46 1470.74,583.74C1467.59,590.03 1463.06,594.82 1457.13,598.11C1451.2,601.4 1444.22,603.05 1436.17,603.05C1425.2,603.05 1416.67,599.94 1410.6,593.72C1404.53,587.5 1401.49,578.25 1401.49,565.96L1401.49,500.78L1385.91,500.78L1385.91,567.72C1385.91,578.69 1387.92,587.84 1391.95,595.15C1395.97,602.47 1401.64,607.95 1408.96,611.61C1416.27,615.27 1424.83,617.1 1434.64,617.1C1444.45,617.1 1453.84,614.72 1461.52,609.97C1467.69,606.15 1472.54,601.11 1476.11,594.88L1476.11,616.01L1491.03,616.01L1491.03,500.79L1475.45,500.79L1475.45,561.14L1475.46,561.14Z" style="fill:rgb(22,22,22);fill-rule:nonzero;"/>
        </g>
        <g transform="matrix(1.278296,0,0,2.918919,-267.163782,-1036.216216)">
            <path d="M1579.89,559.93C1575.43,557.81 1570.53,556.13 1565.19,554.88C1559.85,553.64 1554.51,552.58 1549.17,551.7C1543.83,550.82 1538.93,549.69 1534.47,548.3C1530.01,546.91 1526.42,544.97 1523.72,542.48C1521.01,539.99 1519.66,536.56 1519.66,532.17C1519.66,526.61 1522.11,522.04 1527.01,518.45C1531.91,514.87 1539.55,513.07 1549.94,513.07C1555.79,513.07 1561.64,513.84 1567.5,515.37C1573.35,516.91 1578.84,519.43 1583.96,522.94L1590.76,510.43C1585.93,507.21 1579.79,504.61 1572.32,502.64C1564.86,500.66 1557.4,499.68 1549.94,499.68C1540.14,499.68 1531.83,501.11 1525.03,503.96C1518.23,506.81 1513.07,510.73 1509.56,515.7C1506.05,520.68 1504.29,526.31 1504.29,532.6C1504.29,538.89 1505.64,544.45 1508.35,548.4C1511.06,552.35 1514.61,555.46 1518.99,557.73C1523.38,560 1528.24,561.72 1533.58,562.89C1538.92,564.06 1544.3,565.08 1549.71,565.96C1555.12,566.84 1560.02,567.9 1564.41,569.14C1568.8,570.38 1572.34,572.21 1575.05,574.63C1577.76,577.04 1579.11,580.37 1579.11,584.62C1579.11,590.33 1576.7,594.9 1571.87,598.34C1567.04,601.78 1559.14,603.5 1548.17,603.5C1540.12,603.5 1532.44,602.22 1525.13,599.66C1517.81,597.1 1511.81,594.06 1507.13,590.55L1500.11,602.84C1504.94,606.94 1511.59,610.34 1520.08,613.05C1528.56,615.76 1537.56,617.11 1547.07,617.11C1557.17,617.11 1565.76,615.76 1572.86,613.05C1579.95,610.34 1585.37,606.54 1589.1,601.64C1592.83,596.74 1594.7,590.92 1594.7,584.19C1594.7,577.9 1593.34,572.82 1590.64,568.94C1587.93,565.07 1584.35,562.07 1579.89,559.94L1579.89,559.93Z" style="fill:rgb(22,22,22);fill-rule:nonzero;"/>
        </g>
        <g transform="matrix(1.278296,0,0,2.918919,-267.163782,-1036.216216)">
            <path d="M1702.76,527.67C1697.93,518.82 1691.31,511.94 1682.9,507.04C1674.49,502.14 1664.87,499.69 1654.04,499.69C1643.21,499.69 1633.74,502.21 1625.18,507.26C1616.62,512.31 1609.89,519.22 1604.99,528C1600.09,536.78 1597.64,546.87 1597.64,558.29C1597.64,569.71 1600.2,579.84 1605.32,588.69C1610.44,597.54 1617.54,604.49 1626.61,609.54C1635.68,614.59 1646.21,617.11 1658.21,617.11C1667.43,617.11 1675.88,615.5 1683.56,612.28C1691.24,609.06 1697.64,604.38 1702.76,598.23L1693.98,588.13C1689.59,593.25 1684.36,597.06 1678.29,599.54C1672.22,602.03 1665.67,603.27 1658.65,603.27C1649.72,603.27 1641.79,601.4 1634.84,597.67C1627.89,593.94 1622.48,588.75 1618.6,582.09C1615.35,576.51 1613.48,570.18 1612.96,563.11L1709.79,563.11C1709.79,562.23 1709.82,561.39 1709.9,560.59C1709.97,559.79 1710.01,559.02 1710.01,558.29C1710.01,546.73 1707.6,536.53 1702.77,527.68L1702.76,527.67ZM1618.05,533.92C1621.56,527.34 1626.46,522.22 1632.75,518.56C1639.04,514.9 1646.14,513.07 1654.04,513.07C1661.94,513.07 1669.18,514.9 1675.33,518.56C1681.47,522.22 1686.34,527.3 1689.92,533.81C1692.83,539.09 1694.54,544.99 1695.08,551.48L1613.01,551.48C1613.58,545.03 1615.24,539.17 1618.04,533.92L1618.05,533.92Z" style="fill:rgb(22,22,22);fill-rule:nonzero;"/>
        </g>
        <g transform="matrix(1.278296,0,0,2.918919,-267.163782,-1036.216216)">
            <path d="M1338.66,656.43L1343.97,656.43L1343.97,665.83C1344.83,663.51 1346.42,661.31 1348.75,659.23C1351.07,657.16 1353.7,656.12 1356.63,656.12C1366.89,656.12 1372.02,662.14 1372.02,674.16C1372.02,687.81 1365.4,694.63 1352.16,694.63C1349.78,694.63 1347.05,694.07 1343.97,692.96L1343.97,713.28L1338.66,713.28L1338.66,656.42L1338.66,656.43ZM1356.55,656.74C1353.42,656.74 1350.59,658.09 1348.06,660.8C1345.53,663.5 1344.17,665.94 1343.97,668.12L1343.97,692.31C1347.05,693.47 1349.76,694.05 1352.08,694.05C1361.83,694.05 1366.71,687.4 1366.71,674.11C1366.71,662.54 1363.32,656.75 1356.55,656.75L1356.55,656.74Z" style="fill:rgb(121,0,127);fill-rule:nonzero;"/>
            <path d="M1392.56,659.69L1392.56,658.1C1390.29,659.01 1388.21,660.84 1386.34,663.6C1384.47,666.36 1383.48,668.94 1383.38,671.37L1383.38,694.34L1378.07,694.34L1378.07,656.43L1383.38,656.43L1383.38,668.48C1384.19,665.55 1385.73,662.78 1388,660.18C1390.28,657.58 1392.85,656.23 1395.73,656.12L1396.03,656.12C1397.04,656.12 1397.89,656.46 1398.57,657.14C1399.25,657.82 1399.59,658.67 1399.59,659.68C1399.59,660.69 1399.25,661.53 1398.57,662.18C1397.89,662.84 1397.04,663.17 1396.03,663.17C1395.02,663.17 1394.18,662.84 1393.53,662.18C1392.87,661.52 1392.54,660.69 1392.54,659.68L1392.56,659.69Z" style="fill:rgb(121,0,127);fill-rule:nonzero;"/>
            <path d="M1420.27,694.64C1414.94,694.64 1410.6,693.12 1407.27,690.09C1403.94,687.06 1402.27,682.38 1402.27,676.06C1402.27,669.74 1404,664.84 1407.46,661.35C1410.92,657.86 1415.32,656.12 1420.65,656.12C1425.98,656.12 1430.32,657.64 1433.65,660.67C1436.98,663.7 1438.65,668.38 1438.65,674.7C1438.65,681.02 1436.92,685.92 1433.46,689.41C1430,692.9 1425.6,694.64 1420.27,694.64ZM1420.77,656.74C1416.93,656.74 1413.74,658.45 1411.22,661.86C1408.7,665.27 1407.43,670.02 1407.43,676.11C1407.43,682.2 1408.59,686.71 1410.92,689.64C1413.24,692.57 1416.33,694.04 1420.17,694.04C1424.01,694.04 1427.19,692.33 1429.72,688.92C1432.25,685.51 1433.51,680.76 1433.51,674.67C1433.51,668.58 1432.35,664.07 1430.02,661.14C1427.69,658.21 1424.61,656.74 1420.77,656.74Z" style="fill:rgb(121,0,127);fill-rule:nonzero;"/>
            <path d="M1449.73,652.87L1449.73,656.43L1455.72,656.43L1455.72,657.04L1449.73,657.04L1449.73,694.34L1444.42,694.34L1444.42,657.04L1442.83,657.04L1442.83,656.43L1444.42,656.43L1444.42,652.87C1444.42,647.36 1445.61,643.43 1447.98,641.08C1450.36,638.73 1454.2,637.53 1459.5,637.48L1459.5,638.09C1456.01,638.14 1453.51,639.32 1451.99,641.62C1450.47,643.92 1449.72,647.67 1449.72,652.88L1449.73,652.87Z" style="fill:rgb(121,0,127);fill-rule:nonzero;"/>
            <path d="M1466.18,675.84C1466.18,682.11 1467.28,686.71 1469.48,689.64C1471.68,692.57 1474.57,694.04 1478.16,694.04C1483.21,694.04 1487.71,693.28 1491.65,691.77L1491.88,692.3C1487.84,693.87 1483.27,694.65 1478.19,694.65C1473.11,694.65 1468.98,693.13 1465.8,690.1C1462.62,687.07 1461.02,682.39 1461.02,676.07C1461.02,669.75 1462.69,664.85 1466.02,661.36C1469.36,657.87 1473.6,656.13 1478.76,656.13C1482.9,656.13 1486.39,657.37 1489.22,659.84C1492.05,662.32 1493.47,665.98 1493.47,670.83L1493.47,671.59L1466.4,671.59C1466.25,672.95 1466.17,674.37 1466.17,675.84L1466.18,675.84ZM1485.51,660.22C1483.69,657.9 1481.34,656.73 1478.46,656.73C1475.58,656.73 1473.01,657.99 1470.76,660.52C1468.51,663.05 1467.08,666.54 1466.48,670.98L1488.32,670.98C1488.27,666.13 1487.33,662.54 1485.51,660.21L1485.51,660.22Z" style="fill:rgb(121,0,127);fill-rule:nonzero;"/>
            <path d="M1520.99,659.09C1520.18,658.43 1518.88,657.88 1517.09,657.42C1515.3,656.97 1513.95,656.74 1513.04,656.74L1511.45,656.74C1508.72,656.79 1506.75,657.49 1505.54,658.82C1504.33,660.16 1503.72,661.66 1503.72,663.33C1503.72,665 1504.25,666.4 1505.31,667.54C1506.37,668.68 1507.7,669.56 1509.29,670.19C1510.88,670.82 1512.6,671.54 1514.45,672.35C1516.29,673.16 1518.01,673.98 1519.6,674.81C1521.19,675.64 1522.52,676.86 1523.58,678.45C1524.64,680.04 1525.17,682.03 1525.17,684.4C1525.17,686.77 1524.34,688.8 1522.67,690.46C1521,692.12 1519.14,693.24 1517.1,693.8C1515.06,694.36 1512.84,694.63 1510.47,694.63C1505.31,694.63 1501.45,693.49 1498.87,691.22L1499.33,690.76C1500.34,691.72 1501.84,692.5 1503.84,693.11C1505.84,693.72 1507.77,694.02 1509.64,694.02C1512.62,694.02 1515.09,693.2 1517.03,691.56C1518.97,689.92 1519.95,687.87 1519.95,685.42C1519.95,682.97 1519.22,681 1517.75,679.51C1516.28,678.02 1514.5,676.86 1512.41,676.02C1510.31,675.19 1508.2,674.35 1506.08,673.52C1503.96,672.69 1502.16,671.52 1500.7,670.03C1499.23,668.54 1498.5,666.81 1498.5,664.84C1498.5,662.87 1498.96,661.26 1499.87,660.03C1500.78,658.79 1501.99,657.92 1503.51,657.41C1506.09,656.55 1508.66,656.12 1511.24,656.12C1515.59,656.12 1518.97,656.93 1521.4,658.55L1521.02,659.08L1520.99,659.09Z" style="fill:rgb(121,0,127);fill-rule:nonzero;"/>
            <path d="M1552.23,659.09C1551.42,658.43 1550.12,657.88 1548.33,657.42C1546.54,656.97 1545.19,656.74 1544.28,656.74L1542.69,656.74C1539.96,656.79 1537.99,657.49 1536.78,658.82C1535.57,660.16 1534.96,661.66 1534.96,663.33C1534.96,665 1535.49,666.4 1536.55,667.54C1537.61,668.68 1538.94,669.56 1540.53,670.19C1542.12,670.82 1543.84,671.54 1545.69,672.35C1547.53,673.16 1549.25,673.98 1550.84,674.81C1552.43,675.64 1553.76,676.86 1554.82,678.45C1555.88,680.04 1556.41,682.03 1556.41,684.4C1556.41,686.77 1555.58,688.8 1553.91,690.46C1552.24,692.12 1550.38,693.24 1548.34,693.8C1546.3,694.36 1544.08,694.63 1541.71,694.63C1536.55,694.63 1532.69,693.49 1530.11,691.22L1530.57,690.76C1531.58,691.72 1533.08,692.5 1535.08,693.11C1537.08,693.72 1539.01,694.02 1540.88,694.02C1543.86,694.02 1546.33,693.2 1548.27,691.56C1550.21,689.92 1551.19,687.87 1551.19,685.42C1551.19,682.97 1550.46,681 1548.99,679.51C1547.52,678.02 1545.74,676.86 1543.65,676.02C1541.55,675.19 1539.44,674.35 1537.32,673.52C1535.2,672.69 1533.4,671.52 1531.94,670.03C1530.47,668.54 1529.74,666.81 1529.74,664.84C1529.74,662.87 1530.2,661.26 1531.11,660.03C1532.02,658.79 1533.23,657.92 1534.75,657.41C1537.33,656.55 1539.9,656.12 1542.48,656.12C1546.83,656.12 1550.21,656.93 1552.64,658.55L1552.26,659.08L1552.23,659.09Z" style="fill:rgb(121,0,127);fill-rule:nonzero;"/>
            <path d="M1562.24,647.94C1561.63,647.33 1561.33,646.58 1561.33,645.67C1561.33,644.76 1561.63,643.99 1562.24,643.36C1562.85,642.73 1563.61,642.41 1564.52,642.41C1565.43,642.41 1566.2,642.73 1566.83,643.36C1567.46,643.99 1567.78,644.76 1567.78,645.67C1567.78,646.58 1567.46,647.34 1566.83,647.94C1566.2,648.55 1565.43,648.85 1564.52,648.85C1563.61,648.85 1562.85,648.55 1562.24,647.94ZM1568.3,694.34C1566.23,694.34 1564.65,693.88 1563.56,692.98C1562.47,692.07 1561.9,691.16 1561.85,690.25L1561.78,688.96L1561.78,656.44L1567.09,656.44L1567.09,688.96C1567.09,690.43 1567.38,691.55 1567.96,692.33C1568.54,693.11 1569.11,693.53 1569.67,693.58L1570.58,693.73L1572.93,693.73L1572.93,694.34L1568.3,694.34Z" style="fill:rgb(121,0,127);fill-rule:nonzero;"/>
            <path d="M1593.21,694.64C1587.88,694.64 1583.54,693.12 1580.21,690.09C1576.88,687.06 1575.21,682.38 1575.21,676.06C1575.21,669.74 1576.94,664.84 1580.4,661.35C1583.86,657.86 1588.26,656.12 1593.59,656.12C1598.92,656.12 1603.26,657.64 1606.59,660.67C1609.92,663.7 1611.59,668.38 1611.59,674.7C1611.59,681.02 1609.86,685.92 1606.4,689.41C1602.94,692.9 1598.54,694.64 1593.21,694.64ZM1593.7,656.74C1589.86,656.74 1586.67,658.45 1584.15,661.86C1581.63,665.27 1580.36,670.02 1580.36,676.11C1580.36,682.2 1581.52,686.71 1583.85,689.64C1586.17,692.57 1589.26,694.04 1593.1,694.04C1596.94,694.04 1600.13,692.33 1602.65,688.92C1605.17,685.51 1606.44,680.76 1606.44,674.67C1606.44,668.58 1605.28,664.07 1602.95,661.14C1600.63,658.21 1597.54,656.74 1593.7,656.74Z" style="fill:rgb(121,0,127);fill-rule:nonzero;"/>
            <path d="M1647.61,694.34C1645.54,694.34 1643.96,693.88 1642.87,692.98C1641.78,692.07 1641.21,691.16 1641.16,690.25L1641.08,688.96L1641.08,665.15C1641.08,661.16 1640.04,658.61 1637.97,657.49C1636.91,656.99 1635.59,656.73 1634.03,656.73C1630.79,656.73 1627.89,658.01 1625.31,660.56C1622.73,663.11 1621.44,665.4 1621.44,667.42L1621.44,694.33L1616.13,694.33L1616.13,656.42L1621.44,656.42L1621.44,665.06C1622.3,662.89 1623.89,660.85 1626.22,658.96C1628.54,657.06 1631.1,656.12 1633.88,656.12C1636.66,656.12 1638.92,656.39 1640.67,656.92C1642.42,657.45 1643.69,658.2 1644.5,659.16C1645.76,660.73 1646.4,662.75 1646.4,665.22L1646.4,688.95C1646.4,690.42 1646.69,691.54 1647.27,692.32C1647.85,693.1 1648.45,693.52 1649.05,693.57L1649.88,693.72L1652.23,693.72L1652.23,694.33L1647.61,694.33L1647.61,694.34Z" style="fill:rgb(121,0,127);fill-rule:nonzero;"/>
            <path d="M1687.33,694.34C1683.89,694.34 1681.54,693.68 1680.28,692.37C1679.12,691.26 1678.54,690.3 1678.54,689.49L1678.54,687.9C1676.06,692.4 1672.1,694.65 1666.64,694.65C1660.27,694.65 1656.66,691.77 1655.8,686.01C1655.7,685.4 1655.65,684.78 1655.65,684.15C1655.65,683.52 1655.75,682.82 1655.95,682.07C1656.15,681.31 1656.73,680.48 1657.69,679.57C1659.61,677.75 1663.83,676.64 1670.35,676.23C1671.97,676.08 1673.46,676 1674.82,676C1676.18,676 1677.42,676.05 1678.53,676.15L1678.53,663.56C1678.43,663.51 1678.43,663.27 1678.53,662.84C1678.63,662.41 1678.54,661.85 1678.26,661.17C1677.98,660.49 1677.62,659.82 1677.16,659.16C1676.7,658.5 1675.9,657.93 1674.73,657.45C1673.57,656.97 1672.05,656.73 1670.18,656.73C1668.31,656.73 1666.12,657.07 1663.62,657.75C1661.12,658.43 1659.28,659.1 1658.12,659.76L1657.82,659.23C1662.32,657.16 1666.89,656.12 1671.54,656.12C1676.75,656.12 1680.18,657.06 1681.85,658.93C1683.16,660.4 1683.82,661.94 1683.82,663.55L1683.82,688.95C1683.82,690.42 1684.11,691.54 1684.69,692.32C1685.27,693.1 1685.86,693.52 1686.47,693.57L1687.3,693.72L1689.65,693.72L1689.65,694.33L1687.3,694.33L1687.33,694.34ZM1667.85,694.04C1670.53,694.04 1672.94,693.12 1675.09,691.27C1677.24,689.43 1678.39,687.64 1678.54,685.92L1678.54,676.75C1677.17,676.65 1675.8,676.6 1674.41,676.6C1673.02,676.6 1671.64,676.68 1670.28,676.83C1666.44,677.29 1663.94,678.14 1662.77,679.41C1661.61,680.67 1661.03,682.42 1661.03,684.64C1661.03,685.04 1661.06,685.5 1661.11,686C1661.57,691.36 1663.81,694.04 1667.86,694.04L1667.85,694.04Z" style="fill:rgb(121,0,127);fill-rule:nonzero;"/>
            <path d="M1705,694.34C1700.55,694.34 1697.75,693.18 1696.59,690.85C1696.34,690.35 1696.21,689.89 1696.21,689.49L1696.21,637.56L1701.52,637.56L1701.52,688.96C1701.52,690.43 1701.81,691.55 1702.39,692.33C1702.97,693.11 1703.57,693.53 1704.17,693.58L1705,693.73L1707.35,693.73L1707.35,694.34L1705,694.34Z" style="fill:rgb(121,0,127);fill-rule:nonzero;"/>
        </g>
        <g transform="matrix(1.278296,0,0,2.918919,-267.163782,-1036.216216)">
            <path d="M352.79,577.74L307.3,577.74C280.11,577.74 258.06,599.79 258.06,626.98C258.06,640.59 263.57,652.88 272.48,661.79C281.38,670.69 293.71,676.19 307.3,676.19C334.49,676.19 356.54,654.16 356.54,626.97L356.54,581.46C356.54,579.4 354.86,577.73 352.79,577.73L352.79,577.74ZM346.56,626.98C346.56,648.63 328.94,666.22 307.3,666.22C285.66,666.22 268.04,648.62 268.04,626.98C268.04,605.34 285.66,587.72 307.3,587.72L346.56,587.72L346.56,626.98Z" style="fill:rgb(142,0,146);fill-rule:nonzero;"/>
            <path d="M356.54,452.96L356.54,498.59C356.54,500.59 354.92,502.2 352.93,502.2L307.3,502.2C293.71,502.2 281.38,496.69 272.48,487.78C263.56,478.86 258.06,466.57 258.06,452.97C258.06,439.37 263.57,427.07 272.48,418.16C281.38,409.26 293.71,403.76 307.3,403.76C334.49,403.76 356.54,425.79 356.54,452.98L356.54,452.96Z" style="fill:rgb(142,0,146);fill-rule:nonzero;"/>
            <path d="M506.13,501.88C506.13,510.22 504.2,517.24 500.32,522.95C496.43,528.66 491.16,532.99 484.52,535.9C483.84,536.2 483.16,536.48 482.47,536.76C475.59,533.63 468.21,531.69 460.54,530.97C468.36,530.05 474.76,527.9 479.69,524.49C486.49,519.82 489.89,512.86 489.89,503.64C489.89,494.42 486.5,487.3 479.69,482.69C472.89,478.08 463.33,475.77 451.04,475.77L402.1,475.77L402.1,530.68L385.86,530.68L385.86,475.38C385.84,475.52 385.84,475.64 385.84,475.78L385.84,453.02C385.84,409.45 350.39,373.99 306.81,373.99C263.23,373.99 227.78,409.44 227.78,453.02C227.78,496.6 263.23,532.05 306.81,532.05L384.86,532.05L384.86,548.01L306.81,548.01C263.24,548.01 227.78,583.44 227.78,627.02C227.78,670.6 263.23,706.05 306.81,706.05C350.39,706.05 385.84,670.6 385.84,627.02L385.84,611.42C386.38,614.77 387.2,618.04 388.25,621.26C388.63,622.44 389.05,623.61 389.49,624.75C392.14,631.67 395.83,638 400.34,643.54C392.52,688.07 353.56,722.01 306.81,722.01C254.44,722.01 211.82,679.41 211.82,627.02C211.82,588.19 235.24,554.74 268.7,540.03C235.24,525.33 211.82,491.85 211.82,453.02C211.82,400.63 254.44,358.03 306.81,358.03C359.18,358.03 401.8,400.63 401.8,453.02L401.8,462.4L452.14,462.4C469.26,462.4 482.55,465.85 491.98,472.71C501.42,479.59 506.13,489.33 506.13,501.9L506.13,501.88Z" style="fill:rgb(142,0,146);fill-rule:nonzero;"/>
            <path d="M506.27,599.84C506.27,614.26 500.42,627.31 490.97,636.75C481.53,646.19 468.48,652.03 454.06,652.03C430.88,652.03 411.2,636.91 404.44,616C402.76,610.91 401.87,605.49 401.87,599.84L401.87,547.63L454.06,547.63C468.48,547.63 481.53,553.48 490.97,562.91C493.6,565.54 495.96,568.46 497.95,571.59C503.12,579.57 506.15,589.05 506.25,599.22C506.27,599.42 506.27,599.64 506.27,599.84Z" style="fill:rgb(250,250,250);fill-rule:nonzero;"/>
            <path d="M506.27,599.84C506.27,614.26 500.42,627.31 490.97,636.75C481.53,646.19 468.48,652.03 454.06,652.03C430.88,652.03 411.2,636.91 404.44,616C402.76,610.91 401.87,605.49 401.87,599.84L401.87,550.63C401.87,548.97 403.21,547.63 404.87,547.63L454.06,547.63C468.48,547.63 481.53,553.48 490.97,562.91C493.6,565.54 495.96,568.46 497.95,571.59C503.12,579.57 506.15,589.05 506.25,599.22C506.27,599.42 506.27,599.64 506.27,599.84Z" style="fill:rgb(142,0,146);fill-rule:nonzero;"/>
        </g>
    </g>
</svg>
