<?xml version="1.0" encoding="UTF-8" standalone="no"?>
<!DOCTYPE svg PUBLIC "-//W3C//DTD SVG 1.1//EN" "http://www.w3.org/Graphics/SVG/1.1/DTD/svg11.dtd">
<svg width="100%" height="100%" viewBox="0 0 1252 1026" version="1.1" xmlns="http://www.w3.org/2000/svg" xmlns:xlink="http://www.w3.org/1999/xlink" xml:space="preserve" xmlns:serif="http://www.serif.com/" style="fill-rule:evenodd;clip-rule:evenodd;stroke-linejoin:round;stroke-miterlimit:2;">
    <g id="Artboard1" transform="matrix(0.626,0,0,0.513,0,0)">
        <rect x="0" y="0" width="2000" height="2000" style="fill:none;"/>
        <g transform="matrix(1.597444,0,0,1.949318,-602.236422,-949.317739)">
            <path d="M912.46,1380.33L922.58,1380.33L922.58,1398.25C924.22,1393.82 927.25,1389.63 931.69,1385.67C936.12,1381.72 941.13,1379.74 946.72,1379.74C966.28,1379.74 976.06,1391.21 976.06,1414.14C976.06,1440.16 963.43,1453.17 938.19,1453.17C933.66,1453.17 928.45,1452.11 922.58,1449.99L922.58,1488.73L912.46,1488.73L912.46,1380.31L912.46,1380.33ZM946.57,1380.91C940.59,1380.91 935.2,1383.49 930.38,1388.64C925.56,1393.8 922.96,1398.45 922.57,1402.59L922.57,1448.7C928.45,1450.92 933.6,1452.03 938.04,1452.03C956.64,1452.03 965.94,1439.36 965.94,1414.01C965.94,1391.94 959.48,1380.91 946.57,1380.91Z" style="fill:rgb(142,0,146);fill-rule:nonzero;"/>
            <path d="M1015.23,1386.54L1015.23,1383.5C1010.89,1385.23 1006.94,1388.73 1003.38,1393.98C999.81,1399.23 997.93,1404.17 997.74,1408.8L997.74,1452.6L987.62,1452.6L987.62,1380.32L997.74,1380.32L997.74,1403.3C999.28,1397.71 1002.22,1392.44 1006.56,1387.47C1010.9,1382.51 1015.81,1379.93 1021.31,1379.74L1021.89,1379.74C1023.82,1379.74 1025.43,1380.39 1026.73,1381.69C1028.03,1382.99 1028.68,1384.61 1028.68,1386.53C1028.68,1388.45 1028.03,1390.05 1026.73,1391.3C1025.43,1392.55 1023.81,1393.18 1021.89,1393.18C1019.97,1393.18 1018.37,1392.55 1017.12,1391.3C1015.87,1390.05 1015.24,1388.46 1015.24,1386.53L1015.23,1386.54Z" style="fill:rgb(142,0,146);fill-rule:nonzero;"/>
            <path d="M1068.07,1453.18C1057.9,1453.18 1049.64,1450.29 1043.28,1444.51C1036.92,1438.73 1033.74,1429.81 1033.74,1417.77C1033.74,1405.73 1037.04,1396.38 1043.64,1389.73C1050.24,1383.08 1058.62,1379.76 1068.79,1379.76C1078.96,1379.76 1087.22,1382.65 1093.58,1388.43C1099.94,1394.21 1103.12,1403.13 1103.12,1415.17C1103.12,1427.21 1099.82,1436.56 1093.22,1443.21C1086.62,1449.86 1078.23,1453.18 1068.07,1453.18ZM1069.01,1380.91C1061.68,1380.91 1055.61,1384.16 1050.8,1390.67C1045.98,1397.17 1043.57,1406.23 1043.57,1417.85C1043.57,1429.47 1045.79,1438.06 1050.22,1443.65C1054.65,1449.24 1060.53,1452.03 1067.86,1452.03C1075.19,1452.03 1081.25,1448.78 1086.07,1442.27C1090.89,1435.77 1093.3,1426.71 1093.3,1415.09C1093.3,1403.47 1091.08,1394.88 1086.65,1389.29C1082.22,1383.7 1076.34,1380.91 1069.01,1380.91Z" style="fill:rgb(142,0,146);fill-rule:nonzero;"/>
            <path d="M1124.23,1373.53L1124.23,1380.32L1135.65,1380.32L1135.65,1381.48L1124.23,1381.48L1124.23,1452.6L1114.11,1452.6L1114.11,1381.48L1111.07,1381.48L1111.07,1380.32L1114.11,1380.32L1114.11,1373.53C1114.11,1363.03 1116.37,1355.53 1120.9,1351.05C1125.43,1346.57 1132.75,1344.28 1142.87,1344.18L1142.87,1345.34C1136.22,1345.44 1131.45,1347.68 1128.56,1352.06C1125.67,1356.45 1124.22,1363.6 1124.22,1373.53L1124.23,1373.53Z" style="fill:rgb(142,0,146);fill-rule:nonzero;"/>
            <path d="M1155.6,1417.34C1155.6,1429.29 1157.7,1438.06 1161.89,1443.65C1166.08,1449.24 1171.6,1452.03 1178.44,1452.03C1188.08,1452.03 1196.65,1450.58 1204.17,1447.69L1204.6,1448.7C1196.89,1451.69 1188.19,1453.18 1178.51,1453.18C1168.83,1453.18 1160.95,1450.29 1154.88,1444.51C1148.81,1438.73 1145.77,1429.81 1145.77,1417.77C1145.77,1405.73 1148.95,1396.38 1155.31,1389.73C1161.67,1383.08 1169.77,1379.76 1179.6,1379.76C1187.5,1379.76 1194.15,1382.12 1199.55,1386.84C1204.95,1391.56 1207.65,1398.55 1207.65,1407.8L1207.65,1409.25L1156.04,1409.25C1155.75,1411.85 1155.61,1414.55 1155.61,1417.35L1155.6,1417.34ZM1192.46,1387.56C1188.99,1383.13 1184.51,1380.91 1179.02,1380.91C1173.53,1380.91 1168.63,1383.32 1164.35,1388.14C1160.06,1392.96 1157.34,1399.61 1156.18,1408.09L1197.81,1408.09C1197.71,1398.84 1195.93,1392 1192.46,1387.56Z" style="fill:rgb(142,0,146);fill-rule:nonzero;"/>
            <path d="M1260.11,1385.39C1258.57,1384.14 1256.09,1383.08 1252.67,1382.21C1249.25,1381.34 1246.67,1380.91 1244.94,1380.91L1241.9,1380.91C1236.7,1381.01 1232.94,1382.33 1230.62,1384.89C1228.31,1387.44 1227.15,1390.31 1227.15,1393.49C1227.15,1396.67 1228.16,1399.34 1230.19,1401.51C1232.21,1403.68 1234.74,1405.37 1237.78,1406.57C1240.82,1407.78 1244.09,1409.15 1247.61,1410.69C1251.13,1412.23 1254.4,1413.8 1257.44,1415.39C1260.48,1416.98 1263.01,1419.29 1265.03,1422.33C1267.05,1425.37 1268.07,1429.15 1268.07,1433.68C1268.07,1438.21 1266.48,1442.06 1263.3,1445.24C1260.12,1448.42 1256.58,1450.54 1252.68,1451.6C1248.78,1452.66 1244.56,1453.19 1240.03,1453.19C1230.2,1453.19 1222.83,1451.02 1217.91,1446.69L1218.78,1445.82C1220.71,1447.65 1223.57,1449.14 1227.38,1450.3C1231.19,1451.46 1234.87,1452.03 1238.44,1452.03C1244.12,1452.03 1248.82,1450.46 1252.53,1447.33C1256.24,1444.2 1258.1,1440.3 1258.1,1435.62C1258.1,1430.94 1256.7,1427.19 1253.91,1424.34C1251.11,1421.5 1247.72,1419.28 1243.72,1417.69C1239.72,1416.1 1235.7,1414.51 1231.65,1412.92C1227.6,1411.33 1224.18,1409.11 1221.39,1406.27C1218.59,1403.43 1217.2,1400.13 1217.2,1396.37C1217.2,1392.61 1218.07,1389.55 1219.8,1387.19C1221.54,1384.83 1223.85,1383.17 1226.74,1382.2C1231.65,1380.56 1236.57,1379.74 1241.48,1379.74C1249.77,1379.74 1256.23,1381.28 1260.85,1384.37L1260.13,1385.38L1260.11,1385.39Z" style="fill:rgb(142,0,146);fill-rule:nonzero;"/>
            <path d="M1319.67,1385.39C1318.13,1384.14 1315.65,1383.08 1312.23,1382.21C1308.81,1381.34 1306.23,1380.91 1304.5,1380.91L1301.46,1380.91C1296.26,1381.01 1292.5,1382.33 1290.18,1384.89C1287.87,1387.44 1286.71,1390.31 1286.71,1393.49C1286.71,1396.67 1287.72,1399.34 1289.75,1401.51C1291.77,1403.68 1294.3,1405.37 1297.34,1406.57C1300.38,1407.78 1303.65,1409.15 1307.17,1410.69C1310.69,1412.23 1313.96,1413.8 1317,1415.39C1320.04,1416.98 1322.57,1419.29 1324.59,1422.33C1326.61,1425.37 1327.63,1429.15 1327.63,1433.68C1327.63,1438.21 1326.04,1442.06 1322.86,1445.24C1319.68,1448.42 1316.14,1450.54 1312.24,1451.6C1308.34,1452.66 1304.12,1453.19 1299.59,1453.19C1289.76,1453.19 1282.39,1451.02 1277.47,1446.69L1278.34,1445.82C1280.27,1447.65 1283.13,1449.14 1286.94,1450.3C1290.75,1451.46 1294.43,1452.03 1298,1452.03C1303.68,1452.03 1308.38,1450.46 1312.09,1447.33C1315.8,1444.2 1317.66,1440.3 1317.66,1435.62C1317.66,1430.94 1316.26,1427.19 1313.47,1424.34C1310.67,1421.5 1307.28,1419.28 1303.28,1417.69C1299.28,1416.1 1295.26,1414.51 1291.21,1412.92C1287.16,1411.33 1283.74,1409.11 1280.95,1406.27C1278.15,1403.43 1276.76,1400.13 1276.76,1396.37C1276.76,1392.61 1277.63,1389.55 1279.36,1387.19C1281.1,1384.83 1283.41,1383.17 1286.3,1382.2C1291.21,1380.56 1296.13,1379.74 1301.04,1379.74C1309.33,1379.74 1315.79,1381.28 1320.41,1384.37L1319.69,1385.38L1319.67,1385.39Z" style="fill:rgb(142,0,146);fill-rule:nonzero;"/>
            <path d="M1338.75,1364.14C1337.59,1362.98 1337.01,1361.54 1337.01,1359.8C1337.01,1358.06 1337.59,1356.6 1338.75,1355.39C1339.91,1354.19 1341.35,1353.58 1343.09,1353.58C1344.83,1353.58 1346.29,1354.18 1347.5,1355.39C1348.7,1356.6 1349.31,1358.06 1349.31,1359.8C1349.31,1361.54 1348.71,1362.98 1347.5,1364.14C1346.29,1365.3 1344.83,1365.88 1343.09,1365.88C1341.35,1365.88 1339.91,1365.3 1338.75,1364.14ZM1350.32,1452.61C1346.37,1452.61 1343.36,1451.74 1341.28,1450.01C1339.21,1448.27 1338.12,1446.54 1338.03,1444.81L1337.89,1442.35L1337.89,1380.34L1348.01,1380.34L1348.01,1442.35C1348.01,1445.15 1348.56,1447.29 1349.67,1448.78C1350.78,1450.28 1351.86,1451.07 1352.92,1451.17L1354.65,1451.46L1359.13,1451.46L1359.13,1452.62L1350.31,1452.62L1350.32,1452.61Z" style="fill:rgb(142,0,146);fill-rule:nonzero;"/>
            <path d="M1397.8,1453.18C1387.63,1453.18 1379.37,1450.29 1373.01,1444.51C1366.65,1438.73 1363.47,1429.81 1363.47,1417.77C1363.47,1405.73 1366.77,1396.38 1373.37,1389.73C1379.97,1383.08 1388.35,1379.76 1398.52,1379.76C1408.69,1379.76 1416.95,1382.65 1423.31,1388.43C1429.67,1394.21 1432.85,1403.13 1432.85,1415.17C1432.85,1427.21 1429.55,1436.56 1422.95,1443.21C1416.35,1449.86 1407.96,1453.18 1397.8,1453.18ZM1398.74,1380.91C1391.41,1380.91 1385.34,1384.16 1380.53,1390.67C1375.71,1397.17 1373.3,1406.23 1373.3,1417.85C1373.3,1429.47 1375.52,1438.06 1379.95,1443.65C1384.38,1449.24 1390.26,1452.03 1397.59,1452.03C1404.92,1452.03 1410.98,1448.78 1415.8,1442.27C1420.62,1435.77 1423.03,1426.71 1423.03,1415.09C1423.03,1403.47 1420.81,1394.88 1416.38,1389.29C1411.95,1383.7 1406.07,1380.91 1398.74,1380.91Z" style="fill:rgb(142,0,146);fill-rule:nonzero;"/>
            <path d="M1501.53,1452.61C1497.58,1452.61 1494.57,1451.74 1492.49,1450.01C1490.42,1448.27 1489.33,1446.54 1489.24,1444.81L1489.1,1442.35L1489.1,1396.96C1489.1,1389.35 1487.12,1384.48 1483.17,1382.36C1481.15,1381.4 1478.64,1380.91 1475.65,1380.91C1469.48,1380.91 1463.94,1383.35 1459.03,1388.21C1454.11,1393.08 1451.66,1397.44 1451.66,1401.29L1451.66,1452.61L1441.54,1452.61L1441.54,1380.33L1451.66,1380.33L1451.66,1396.81C1453.3,1392.67 1456.33,1388.79 1460.77,1385.17C1465.2,1381.56 1470.07,1379.75 1475.37,1379.75C1480.67,1379.75 1484.98,1380.26 1488.31,1381.27C1491.64,1382.28 1494.07,1383.71 1495.61,1385.53C1498.02,1388.52 1499.22,1392.37 1499.22,1397.09L1499.22,1442.34C1499.22,1445.14 1499.77,1447.28 1500.88,1448.77C1501.99,1450.27 1503.12,1451.06 1504.28,1451.16L1505.87,1451.45L1510.35,1451.45L1510.35,1452.61L1501.53,1452.61Z" style="fill:rgb(142,0,146);fill-rule:nonzero;"/>
            <path d="M1577.27,1452.61C1570.71,1452.61 1566.23,1451.36 1563.83,1448.85C1561.61,1446.73 1560.51,1444.9 1560.51,1443.36L1560.51,1440.32C1555.79,1448.9 1548.22,1453.19 1537.81,1453.19C1525.67,1453.19 1518.78,1447.7 1517.14,1436.71C1516.95,1435.55 1516.85,1434.38 1516.85,1433.17C1516.85,1431.96 1517.04,1430.64 1517.43,1429.19C1517.81,1427.74 1518.92,1426.15 1520.76,1424.42C1524.42,1420.95 1532.47,1418.83 1544.9,1418.06C1547.98,1417.77 1550.83,1417.63 1553.43,1417.63C1556.03,1417.63 1558.39,1417.73 1560.51,1417.92L1560.51,1393.92C1560.32,1393.83 1560.32,1393.37 1560.51,1392.55C1560.7,1391.73 1560.53,1390.67 1560,1389.37C1559.47,1388.07 1558.77,1386.79 1557.9,1385.54C1557.03,1384.29 1555.49,1383.21 1553.27,1382.29C1551.05,1381.37 1548.16,1380.92 1544.6,1380.92C1541.04,1380.92 1536.87,1381.57 1532.1,1382.87C1527.33,1384.17 1523.84,1385.45 1521.62,1386.7L1521.04,1385.69C1529.62,1381.74 1538.34,1379.76 1547.2,1379.76C1557.12,1379.76 1563.68,1381.54 1566.86,1385.11C1569.36,1387.91 1570.62,1390.85 1570.62,1393.93L1570.62,1442.36C1570.62,1445.16 1571.17,1447.3 1572.28,1448.79C1573.39,1450.29 1574.52,1451.08 1575.68,1451.18L1577.27,1451.47L1581.75,1451.47L1581.75,1452.63L1577.27,1452.63L1577.27,1452.61ZM1540.12,1452.03C1545.23,1452.03 1549.83,1450.27 1553.92,1446.75C1558.02,1443.23 1560.21,1439.84 1560.5,1436.56L1560.5,1419.07C1557.9,1418.88 1555.27,1418.78 1552.62,1418.78C1549.97,1418.78 1547.34,1418.92 1544.74,1419.21C1537.41,1420.08 1532.64,1421.72 1530.43,1424.13C1528.21,1426.54 1527.11,1429.86 1527.11,1434.1C1527.11,1434.87 1527.16,1435.74 1527.25,1436.7C1528.12,1446.92 1532.4,1452.02 1540.12,1452.02L1540.12,1452.03Z" style="fill:rgb(142,0,146);fill-rule:nonzero;"/>
            <path d="M1610.95,1452.61C1602.47,1452.61 1597.12,1450.39 1594.9,1445.96C1594.42,1445 1594.18,1444.13 1594.18,1443.36L1594.18,1344.34L1604.3,1344.34L1604.3,1442.35C1604.3,1445.15 1604.85,1447.29 1605.96,1448.78C1607.07,1450.28 1608.2,1451.07 1609.36,1451.17L1610.95,1451.46L1615.43,1451.46L1615.43,1452.62L1610.95,1452.62L1610.95,1452.61Z" style="fill:rgb(142,0,146);fill-rule:nonzero;"/>
        </g>
        <g transform="matrix(1.597444,0,0,1.949318,-602.236422,-949.317739)">
            <g>
                <path d="M1620.49,787.32L1620.49,1020.8C1609.17,1005.33 1595.78,991.39 1580.8,979.47C1579.43,978.32 1578.01,977.23 1576.59,976.19L1576.59,787.32L1620.49,787.32Z" style="fill:rgb(142,0,146);fill-rule:nonzero;"/>
                <path d="M1620.49,1149.98L1620.49,1306.98L1576.59,1306.98L1576.59,1149.98C1576.59,1077.27 1517.6,1018.29 1444.9,1018.29L1321.08,1018.29C1316.71,1018.29 1313.21,1021.84 1313.21,1026.22L1313.21,1306.99L1268.71,1306.99L1268.71,787.32L1313.21,787.32L1313.21,974.94L1461.47,974.94C1487.27,977.4 1511.49,985.44 1532.86,997.9C1541.12,1002.6 1548.93,1008.07 1556.2,1014.03C1563.53,1020.1 1570.36,1026.66 1576.59,1033.77C1585.01,1043.34 1592.39,1053.72 1598.57,1064.93L1598.63,1064.98C1612.57,1090.18 1620.5,1119.16 1620.5,1149.99L1620.49,1149.98Z" style="fill:rgb(142,0,146);fill-rule:nonzero;"/>
            </g>
            <g>
                <path d="M770.75,1103.4L646.11,1103.4C571.6,1103.4 511.19,1163.81 511.19,1238.32C511.19,1275.6 526.28,1309.28 550.71,1333.71C575.09,1358.09 608.88,1373.18 646.11,1373.18C720.62,1373.18 781.03,1312.83 781.03,1238.32L781.03,1113.62C781.03,1107.99 776.44,1103.4 770.75,1103.4ZM753.69,1238.32C753.69,1297.63 705.42,1345.85 646.11,1345.85C586.8,1345.85 538.52,1297.63 538.52,1238.32C538.52,1179.01 586.79,1130.74 646.11,1130.74L753.69,1130.74L753.69,1238.32Z" style="fill:rgb(142,0,146);fill-rule:nonzero;"/>
                <path d="M781.03,761.51L781.03,886.53C781.03,892 776.6,896.42 771.13,896.42L646.11,896.42C608.88,896.42 575.1,881.33 550.71,856.9C526.27,832.46 511.19,798.79 511.19,761.51C511.19,724.23 526.28,690.55 550.71,666.12C575.09,641.74 608.88,626.65 646.11,626.65C720.62,626.65 781.03,687 781.03,761.51Z" style="fill:rgb(142,0,146);fill-rule:nonzero;"/>
                <path d="M1190.92,895.56C1190.92,918.41 1185.62,937.65 1175.01,953.29C1164.35,968.92 1149.92,980.79 1131.71,988.77C1129.85,989.59 1127.99,990.36 1126.08,991.12C1107.22,982.54 1086.99,977.23 1066,975.27C1087.43,972.76 1104.98,966.85 1118.48,957.5C1137.12,944.71 1146.42,925.63 1146.42,900.37C1146.42,875.11 1137.13,855.6 1118.48,842.97C1099.84,830.34 1073.65,824 1039.98,824L905.88,824L905.88,974.44L861.38,974.44L861.38,822.9C861.32,823.28 861.32,823.61 861.32,823.99L861.32,761.61C861.32,642.22 764.18,545.07 644.78,545.07C525.38,545.07 428.24,642.21 428.24,761.61C428.24,881.01 525.38,978.15 644.78,978.15L858.64,978.15L858.64,1021.88L644.78,1021.88C525.39,1021.88 428.24,1118.97 428.24,1238.36C428.24,1357.75 525.38,1454.9 644.78,1454.9C764.18,1454.9 861.32,1357.76 861.32,1238.36L861.32,1195.61C862.8,1204.79 865.04,1213.76 867.93,1222.56C868.97,1225.79 870.12,1229.01 871.32,1232.13C878.59,1251.1 888.71,1268.43 901.06,1283.63C879.63,1405.65 772.87,1498.64 644.78,1498.64C501.28,1498.64 384.51,1381.93 384.51,1238.37C384.51,1131.99 448.69,1040.31 540.36,1000.02C448.68,959.73 384.51,868 384.51,761.62C384.51,618.06 501.28,501.35 644.78,501.35C788.28,501.35 905.05,618.06 905.05,761.62L905.05,787.31L1042.98,787.31C1089.88,787.31 1126.29,796.77 1152.15,815.57C1178.01,834.43 1190.91,861.11 1190.91,895.55L1190.92,895.56Z" style="fill:rgb(142,0,146);fill-rule:nonzero;"/>
                <path d="M1191.3,1163.97C1191.3,1203.49 1175.28,1239.25 1149.37,1265.1C1123.51,1290.96 1087.76,1306.97 1048.24,1306.97C984.72,1306.97 930.81,1265.53 912.28,1208.24C907.69,1194.3 905.23,1179.43 905.23,1163.96L905.23,1029.12C905.23,1024.58 908.91,1020.9 913.45,1020.9L1048.24,1020.9C1087.76,1020.9 1123.51,1036.92 1149.37,1062.78C1156.59,1070 1163.04,1077.98 1168.5,1086.56C1182.66,1108.43 1190.97,1134.39 1191.24,1162.27C1191.3,1162.82 1191.3,1163.42 1191.3,1163.96L1191.3,1163.97Z" style="fill:rgb(142,0,146);fill-rule:nonzero;"/>
            </g>
        </g>
    </g>
</svg>
