<svg width="832" height="832" viewBox="0 0 832 832" fill="none" xmlns="http://www.w3.org/2000/svg">
<rect width="832" height="832" fill="#E2E2E2"/>
<path d="M325.375 532.375C318.294 532.375 312.232 529.854 307.189 524.811C302.146 519.768 299.625 513.706 299.625 506.625V326.375C299.625 319.294 302.146 313.232 307.189 308.189C312.232 303.146 318.294 300.625 325.375 300.625H505.625C512.706 300.625 518.768 303.146 523.811 308.189C528.854 313.232 531.375 319.294 531.375 326.375V506.625C531.375 513.706 528.854 519.768 523.811 524.811C518.768 529.854 512.706 532.375 505.625 532.375H325.375ZM338.25 480.875H492.75L444.469 416.5L405.844 468L376.875 429.375L338.25 480.875Z" fill="#A1A1A1"/>
</svg>
