<?xml version="1.0" encoding="UTF-8" standalone="no"?>
<!DOCTYPE svg PUBLIC "-//W3C//DTD SVG 1.1//EN" "http://www.w3.org/Graphics/SVG/1.1/DTD/svg11.dtd">
<svg width="100%" height="100%" viewBox="0 0 257 214" version="1.1" xmlns="http://www.w3.org/2000/svg" xmlns:xlink="http://www.w3.org/1999/xlink" xml:space="preserve" xmlns:serif="http://www.serif.com/" style="fill-rule:evenodd;clip-rule:evenodd;stroke-linejoin:round;stroke-miterlimit:2;">
    <g transform="matrix(1,0,0,1,0.000163,-23.999848)">
        <g transform="matrix(6.095246,0,0,6.095246,-18.285896,-18.666873)">
            <path d="M41.419,7.309C41.419,7.309 45.305,5.794 44.981,9.473C44.873,10.988 43.902,16.291 43.146,22.026L40.556,39.016C40.556,39.016 40.34,41.505 38.397,41.938C36.455,42.37 33.541,40.423 33.001,39.99C32.569,39.665 24.907,34.795 22.209,32.415C21.453,31.765 20.59,30.467 22.317,28.952L33.649,18.131C34.944,16.832 36.239,13.802 30.843,17.481L15.733,27.762C15.733,27.762 14.006,28.844 10.769,27.87L3.753,25.706C3.753,25.706 1.163,24.082 5.588,22.459C16.381,17.373 29.655,12.179 41.419,7.309Z" style="fill-rule:nonzero;"/>
        </g>
    </g>
</svg>
